# Blender3D v249 OBJ File: untitled.blend
# www.blender3d.org
mtllib cube.mtl
v 1.000000 -1.000000 -1.000000
v 1.000000 -1.000000 1.000000
v -1.000000 -1.000000 1.000000
v -1.000000 -1.000000 -1.000000
v 1.000000 1.000000 -1.000000
v 0.999999 1.000000 1.000001
v -1.000000 1.000000 1.000000
v -1.000000 1.000000 -1.000000
vt 0.748573 0.750412
vt 0.749279 0.501284
vt 0.999110 0.501077
vt 0.999455 0.750380
vt 0.250471 0.500702
vt 0.249682 0.749677
vt 0.001085 0.750380
vt 0.001517 0.499994
vt 0.499422 0.500239
vt 0.500149 0.750166
vt 0.748355 0.998230
vt 0.500193 0.998728
vt 0.498993 0.250415
vt 0.748953 0.250920
vn 0.000000 0.000000 -1.000000
vn -1.000000 -0.000000 -0.000000
vn -0.000000 -0.000000 1.000000
vn -0.000001 0.000000 1.000000
vn 1.000000 -0.000000 0.000000
vn 1.000000 0.000000 0.000001
vn 0.000000 1.000000 -0.000000
vn -0.000000 -1.000000 0.000000
usemtl Material_ray.png
s off
f 5/1/1 1/2/1 4/3/1
f 5/1/1 4/3/1 8/4/1
f 3/5/2 7/6/2 8/7/2
f 3/5/2 8/7/2 4/8/2
f 2/9/3 6/10/3 3/5/3
f 6/10/4 7/6/4 3/5/4
f 1/2/5 5/1/5 2/9/5
f 5/1/6 6/10/6 2/9/6
f 5/1/7 8/11/7 6/10/7
f 8/11/7 7/12/7 6/10/7
f 1/2/8 2/9/8 3/13/8
f 1/2/8 3/13/8 4/14/8

-		indeces	{ size=36 }	std::vector<unsigned int,std::allocator<unsigned int>>
+		indeces	{ size=36 }	std::vector<unsigned int,std::allocator<unsigned int>>



0,1,2
0,2,3
7,6,5
2,7,3
2,6,7
4,0,3
4,3,7
1,5,2
5,6,2
0,4,1
4,5,1
4,7,5

/*
----
----
----
*/


6,4,5
1,3,7
4,0,1
6,5,7
2,7,3
2,6,7
1,7,5
0,3,1
4,1,5

//8 9 10 11 
2,9,6       12-10,12-3,12-6
6,11,4      12-6,12-1,12-8
0,8,2       12-12,12-4,12-10
4,10,0      12-8,12-2,12-12
6,9,11      12-6,12-3,12-1
0,10,8      12-12,12-2,12-4
4,11,10     12-8,12-1,12-2
2,8,9       12-10,12-4,12-3

//12 13 14 15
11,14,10    16-5,16-2,16-6
10,12,8     16-6,16-4,16-8
9,15,11     16-7,16-1,16-5
8,13,9      16-8,16-3,16-7
11,15,14    16-5,16-1,16-2
10,14,12    16-6,16-2,16-4
9,13,15     16-7,16-3,16-1
8,12,13     16-8,16-4,16-3

//closing
15,13,12
15,12,14

// 1 2 3 4 5 6 7
3,2,6
7,6,4
5,1,3
1,0,2
5,4,0

//8  9 10 11
4,6,9       n-8,n-6,n-3
2,0,10      n-10,n-12,n-2
0,4,11      n-12,n-8,n-1
6,2,8       n-6,n-10,n-4

//12 13 14 15
8,10,14     n-8,n-6,n-2
11,9,13     n-5,n-7,n-3
9,8,12      n-7,n-8.n-4
10,11,15    n-6,n-5,n-1

//16 17 18 19
15,13,17    n-5,n-7,n-3
18,19,17    n-2,n-1,n-3 **
13,12,16    n-7,n-8,n-4
14,15,19    n-6,n-5,n-1
12,14,18    n-8,n-6,n-2


//final

//1 2 3 4 5 6 7
2,6,7
6,4,5
1,3,7
0,2,3
4,0,1
2,7,3
6,5,7
1,7,5
0,3,1
4,1,5

//8 9 10 11
6,11,4      
0,8,2
4,10,0
2,9,6
6,9,11
0,10,8
4,11,10
2,8,9

//12 13 14 15
9,13,15     n-7,n-3,n-1
8,12,13     n-8,n-4,n-3
11,15,14    n-5,n-1,n-2
10,14,12    n-6,n-2,n-4
9,15,11     n-7,n-1,n-5
11,14,10    n-5,n-2,n-6
8,13,9      n-8,n-3,n-7
10,12,8     n-6,n-4,n-8

//16 17 18 19
13,17,19    n-7,n-3,n-1
12,16,17    n-8,n-4,n-3
15,19,18    n-5,n-1,n-2
14,18,16    n-6,n-2,n-4
13,19,15    n-7,n-1,n-5
15,18,14    n-5,n-2,n-6
12,17,13    n-8,n-3,n-7
14,16,12    n-6,n-4,n-8

19,17,16    n-1,n-3,n-4
19,16,18    n-1,n-4,n-2

